<svg width="252" height="139" viewBox="0 0 252 139" fill="none" xmlns="http://www.w3.org/2000/svg">
<g clip-path="url(#clip0)">
<path d="M1.23199 67.8189C10.3874 64.9447 15.9487 59.3105 22.9953 60.5079C29.7786 61.6606 30.8491 68.6263 26.9172 71.7539C26.4652 71.5171 26.0156 71.2919 25.5685 71.0782C25.0221 70.8149 24.4806 70.5814 23.9466 70.3479C23.198 69.6707 22.5624 68.8781 22.0638 68.0003C21.5165 67.0445 21.0734 66.0326 20.7424 64.982C20.4517 64.0904 20.2349 63.1765 20.0942 62.2494C20.1734 64.3534 20.6804 66.4192 21.5845 68.3208C21.8359 68.8192 22.124 69.2983 22.4463 69.7542C21.0781 69.2433 19.6795 68.8177 18.2586 68.4797C18.1415 68.4196 18.0158 68.3777 17.886 68.3555C16.2045 67.5904 15.3128 66.1322 14.8235 65.1459C14.2572 63.9659 14.0138 63.2753 14.0013 63.2828C13.9889 63.2902 14.1379 64.0107 14.5652 65.29C14.8294 66.0797 15.2185 66.822 15.7177 67.4886C15.8706 67.692 16.0366 67.8853 16.2144 68.0674C15.7947 67.9928 15.3873 67.9332 14.9899 67.886C12.7051 67.5859 10.3924 67.5634 8.10225 67.8189C6.5449 67.9978 5.75256 68.1966 5.75504 68.1866C5.75752 68.1767 6.58712 68.0723 8.17429 68.0227C10.4716 67.9604 12.7684 68.1621 15.0197 68.6238L15.3178 68.6909C15.0272 68.7729 14.749 68.8623 14.4807 68.9393C13.585 69.244 12.7377 69.6757 11.9646 70.2212C10.6854 71.1428 10.442 72.0371 10.4346 72.0098C10.4346 72.0297 10.8295 71.1851 12.1559 70.4497C12.9527 70.0151 13.8039 69.6885 14.6869 69.4784C15.4898 69.2735 16.3127 69.1569 17.1409 69.1306C18.9955 69.651 20.8048 70.3214 22.5507 71.1354C21.754 71.2827 20.9811 71.5376 20.2531 71.8931C19.0374 72.5125 17.9063 73.2856 16.8875 74.1934C15.2308 75.6591 14.4261 76.5534 14.4037 76.541C14.3814 76.5286 15.3401 75.7212 17.1036 74.3922C18.1595 73.5863 19.3108 72.9138 20.5313 72.3899C21.5927 71.9539 22.7353 71.7506 23.882 71.7937C24.272 71.9924 24.6619 72.1986 25.0593 72.4172C25.7101 72.7774 26.3683 73.1749 27.0315 73.5898C27.9729 77.5918 24.7041 82.8161 18.4722 81.7578C13.8622 80.9853 9.48574 70.7255 1.23199 67.8189Z" fill="#639E2E"/>
<path d="M81 26.0519C68.8988 28.2703 59.2243 25.2048 51.9392 30.7719C44.9373 36.1353 47.8881 44.6835 54.2169 45.871C54.587 45.3319 54.9621 44.8052 55.3396 44.2985C55.8041 43.6724 56.2735 43.0762 56.7454 42.4999C57.187 41.2835 57.4335 40.0049 57.4757 38.7115C57.524 37.2968 57.4207 35.881 57.1677 34.4883C56.9659 33.3008 56.6643 32.1323 56.2661 30.9955C57.4348 33.4285 58.0956 36.0742 58.2084 38.7711C58.2218 39.4868 58.1828 40.2025 58.0917 40.9125C59.3331 39.5154 60.6604 38.197 62.0658 36.9651C62.1621 36.8245 62.2803 36.7004 62.416 36.5974C63.8666 34.7243 64.0032 32.5382 63.9684 31.1321C63.9063 29.4553 63.7697 28.5287 63.7871 28.5262C63.8045 28.5237 64.0678 29.4354 64.3484 31.1421C64.518 32.1952 64.518 33.2687 64.3484 34.3219C64.2936 34.6452 64.2181 34.9646 64.1224 35.2783C64.5513 34.9471 64.9777 34.6349 65.4016 34.3417C67.8245 32.6419 70.4441 31.2414 73.2033 30.1707C75.0761 29.4429 76.092 29.192 76.0845 29.1771C76.0771 29.1622 75.0736 29.5447 73.2455 30.439C70.6015 31.7419 68.1162 33.3448 65.8387 35.2162C65.7443 35.2957 65.6425 35.3876 65.5432 35.4646C65.9232 35.3851 66.2883 35.318 66.6435 35.2559C67.8418 35.064 69.0616 35.0464 70.2649 35.2038C72.2644 35.4845 73.0741 36.3515 73.0667 36.3142C73.0667 36.3415 72.1278 35.6161 70.1829 35.5689C69.0232 35.5612 67.8675 35.7057 66.7453 35.9987C65.7163 36.2488 64.7171 36.6086 63.7647 37.0719C61.9725 38.7713 60.322 40.614 58.8294 42.5819C59.8202 42.2707 60.8489 42.0968 61.887 42.0651C63.6366 42.0403 65.3821 42.2407 67.0806 42.6614C69.8352 43.3346 71.2833 43.8662 71.2907 43.8463C71.2907 43.8662 69.7408 43.4762 66.944 43.0216C65.2647 42.7399 63.557 42.6665 61.8596 42.803C60.3981 42.939 58.9827 43.3872 57.7092 44.1171C57.3863 44.5792 57.0659 45.0437 56.7479 45.5306C56.2238 46.3305 55.7171 47.1727 55.2129 48.0422C56.5368 53.1422 63.3698 57.112 69.8029 52.1808C74.547 48.5365 73.3821 34.2821 81 26.0519Z" fill="#639E2E"/>
<path d="M0 0C14.9029 3.92008 27.2798 1.00859 35.8341 8.66493C44.0705 16.0281 39.5748 26.4146 31.557 27.2965C31.1447 26.591 30.7274 25.8954 30.3027 25.2247C29.7811 24.3966 29.2528 23.6041 28.718 22.8473C28.2818 21.2858 28.0949 19.6651 28.1641 18.0453C28.238 16.2783 28.5011 14.5244 28.949 12.8136C29.317 11.3501 29.8047 9.91935 30.407 8.53575C28.7197 11.4661 27.6464 14.7092 27.2525 18.0677C27.1686 18.9611 27.1503 19.8595 27.1979 20.7556C25.771 18.8921 24.2297 17.1191 22.5829 15.4468C22.4774 15.2613 22.3433 15.0937 22.1855 14.95C20.5512 12.4658 20.5859 9.73314 20.7648 7.96935C21.0132 5.88261 21.2615 4.73987 21.2367 4.73987C21.2591 4.73987 20.802 5.84783 20.2904 7.95196C19.9727 9.25137 19.867 10.5936 19.9774 11.9267C20.0149 12.3361 20.0788 12.7427 20.1687 13.144C19.662 12.6869 19.1586 12.2563 18.6585 11.8522C15.8017 9.49662 12.6709 7.49476 9.33421 5.89006C7.06648 4.80198 5.8196 4.39954 5.82705 4.38215C5.8345 4.36476 7.06897 4.93861 9.25473 6.2304C12.4376 8.10234 15.3931 10.3364 18.0624 12.8881C18.1766 12.9999 18.2934 13.1216 18.4101 13.2359C17.9431 13.0992 17.4936 12.9875 17.0539 12.8682C15.5772 12.5149 14.057 12.3777 12.5408 12.4608C10.0123 12.6223 8.91941 13.6259 8.93183 13.5812C8.93183 13.6135 10.1737 12.7987 12.6029 12.9328C14.0578 13.0243 15.4943 13.3075 16.8751 13.7749C18.137 14.1862 19.351 14.7317 20.4965 15.4021C22.5735 17.6949 24.46 20.1533 26.1373 22.7529C24.9284 22.2695 23.6589 21.9544 22.3644 21.8163C20.1828 21.6174 17.9847 21.7009 15.8244 22.0648C12.3173 22.6436 10.4619 23.1677 10.4519 23.1429C10.4519 23.1702 12.4241 22.8274 15.9586 22.5268C18.0837 22.3344 20.2244 22.4054 22.3321 22.738C24.1437 23.047 25.8682 23.7408 27.3891 24.7725C27.7468 25.3787 28.1045 25.9923 28.4572 26.6307C29.0334 27.6766 29.5873 28.7796 30.1362 29.9099C27.9952 36.1552 19.0857 40.4653 11.5076 33.6958C5.92392 28.6926 8.73064 11.015 0 0Z" fill="#639E2E"/>
<path d="M52.3962 51.848C57.7216 41.5658 62.7414 37.1389 62.6644 37.129C62.7538 37.1489 57.4856 40.992 51.4176 50.9785C48.4544 55.9469 45.2081 62.4903 43.5041 70.7652L43.4147 71.1875C43.2086 69.2896 42.9676 67.4264 42.6696 65.608C42.1728 62.7362 41.6388 60.1576 41.1271 57.5691C40.0889 52.4491 38.9538 47.7763 37.6721 43.6451C35.1386 35.3602 31.9593 29.336 29.4407 25.5625C28.1704 23.6301 26.7591 21.7943 25.2182 20.0699C26.5358 21.8863 27.7323 23.7875 28.7999 25.7613C30.9136 29.6242 33.4993 35.6459 35.3671 43.8364C36.316 47.9254 37.1058 52.5311 37.7814 57.6411L38.7749 65.6403C39.0556 68.3729 39.2146 71.2496 39.304 74.2506C39.4506 79.2712 39.694 85.032 39.9001 91.1656C38.2335 85.7475 35.9856 81.2635 33.4943 77.9843C30.7895 74.3773 27.7815 72.37 25.6281 71.4757C24.5372 71.0036 23.3915 70.6697 22.2178 70.482C23.3158 70.803 24.3734 71.249 25.3697 71.8111C27.322 72.8892 29.93 75.0405 32.158 78.6451C34.386 82.2497 36.3011 87.1461 37.4933 93.0933C38.6781 99.0281 40.2056 114.055 36.691 118H47.9129C44.299 114.418 44.2518 100.275 44.1599 87.9783C44.4853 82.0733 45.1186 76.5659 45.8986 71.5328C47.0684 63.5362 49.7957 56.9754 52.3962 51.848Z" fill="#639E2E"/>
</g>
<path d="M87.624 115.372C87.744 115.684 87.804 115.948 87.804 116.164C87.804 116.668 87.624 117.1 87.264 117.46C86.904 117.82 86.46 118 85.932 118C85.572 118 85.224 117.904 84.888 117.712C84.576 117.496 84.348 117.208 84.204 116.848L82.188 111.808H69.264L67.212 116.848C67.044 117.208 66.804 117.496 66.492 117.712C66.18 117.904 65.844 118 65.484 118C64.956 118 64.512 117.82 64.152 117.46C63.816 117.076 63.648 116.632 63.648 116.128C63.648 115.888 63.708 115.612 63.828 115.3L73.944 91.144C74.304 90.304 74.892 89.884 75.708 89.884C76.572 89.884 77.16 90.304 77.472 91.144L87.624 115.372ZM70.524 108.712H80.928L75.78 95.896L70.524 108.712ZM99.7774 98.164C101.673 98.164 103.365 98.596 104.853 99.46C106.365 100.3 107.541 101.476 108.381 102.988C109.245 104.5 109.677 106.228 109.677 108.172V115.948C109.677 117.844 109.257 119.572 108.417 121.132C107.577 122.692 106.389 123.916 104.853 124.804C103.341 125.716 101.625 126.172 99.7054 126.172C97.9774 126.172 96.3694 125.824 94.8814 125.128C93.3934 124.456 92.1454 123.484 91.1374 122.212C90.8734 121.876 90.7414 121.54 90.7414 121.204C90.7414 120.7 90.9934 120.268 91.4974 119.908C91.8334 119.692 92.1694 119.584 92.5054 119.584C93.1054 119.584 93.5974 119.836 93.9814 120.34C94.6294 121.18 95.4454 121.816 96.4294 122.248C97.4134 122.704 98.5294 122.932 99.7774 122.932C100.953 122.932 102.021 122.644 102.981 122.068C103.941 121.516 104.709 120.688 105.285 119.584C105.861 118.504 106.149 117.208 106.149 115.696V113.932C105.405 115.252 104.421 116.284 103.197 117.028C101.973 117.772 100.593 118.144 99.0574 118.144C97.2814 118.144 95.6854 117.724 94.2694 116.884C92.8774 116.02 91.7854 114.832 90.9934 113.32C90.2254 111.808 89.8414 110.092 89.8414 108.172C89.8414 106.228 90.2614 104.5 91.1014 102.988C91.9414 101.476 93.1174 100.3 94.6294 99.46C96.1414 98.596 97.8574 98.164 99.7774 98.164ZM99.7774 114.904C101.001 114.904 102.093 114.616 103.053 114.04C104.037 113.464 104.793 112.672 105.321 111.664C105.873 110.632 106.149 109.468 106.149 108.172C106.149 106.876 105.873 105.712 105.321 104.68C104.793 103.648 104.037 102.844 103.053 102.268C102.093 101.692 101.001 101.404 99.7774 101.404C98.5534 101.404 97.4494 101.692 96.4654 102.268C95.5054 102.844 94.7494 103.648 94.1974 104.68C93.6454 105.712 93.3694 106.876 93.3694 108.172C93.3694 109.468 93.6454 110.632 94.1974 111.664C94.7494 112.672 95.5054 113.464 96.4654 114.04C97.4494 114.616 98.5534 114.904 99.7774 114.904ZM124.79 98.092C126.062 98.092 127.058 98.284 127.778 98.668C128.498 99.052 128.858 99.532 128.858 100.108C128.858 100.276 128.846 100.396 128.822 100.468C128.606 101.236 128.126 101.62 127.382 101.62C127.262 101.62 127.082 101.596 126.842 101.548C125.882 101.38 125.102 101.296 124.502 101.296C122.774 101.296 121.382 101.692 120.326 102.484C119.27 103.276 118.742 104.344 118.742 105.688V116.2C118.742 116.776 118.586 117.22 118.274 117.532C117.986 117.844 117.542 118 116.942 118C116.366 118 115.922 117.856 115.61 117.568C115.298 117.256 115.142 116.8 115.142 116.2V100.108C115.142 99.532 115.298 99.088 115.61 98.776C115.922 98.464 116.366 98.308 116.942 98.308C118.142 98.308 118.742 98.908 118.742 100.108V100.792C119.462 99.952 120.35 99.292 121.406 98.812C122.462 98.332 123.59 98.092 124.79 98.092ZM140.137 118.144C138.217 118.144 136.501 117.724 134.989 116.884C133.477 116.02 132.301 114.832 131.461 113.32C130.621 111.808 130.201 110.092 130.201 108.172C130.201 106.228 130.621 104.5 131.461 102.988C132.301 101.476 133.477 100.3 134.989 99.46C136.501 98.596 138.217 98.164 140.137 98.164C142.033 98.164 143.725 98.596 145.213 99.46C146.725 100.3 147.901 101.476 148.741 102.988C149.605 104.5 150.037 106.228 150.037 108.172C150.037 110.092 149.617 111.808 148.777 113.32C147.937 114.832 146.761 116.02 145.249 116.884C143.761 117.724 142.057 118.144 140.137 118.144ZM140.137 114.904C141.361 114.904 142.453 114.616 143.413 114.04C144.397 113.464 145.153 112.672 145.681 111.664C146.233 110.632 146.509 109.468 146.509 108.172C146.509 106.876 146.233 105.712 145.681 104.68C145.153 103.648 144.397 102.844 143.413 102.268C142.453 101.692 141.361 101.404 140.137 101.404C138.913 101.404 137.809 101.692 136.825 102.268C135.865 102.844 135.109 103.648 134.557 104.68C134.005 105.712 133.729 106.876 133.729 108.172C133.729 109.468 134.005 110.632 134.557 111.664C135.109 112.672 135.865 113.464 136.825 114.04C137.809 114.616 138.913 114.904 140.137 114.904ZM168.762 89.884C169.266 89.884 169.674 90.052 169.986 90.388C170.322 90.7 170.49 91.108 170.49 91.612C170.49 92.116 170.322 92.536 169.986 92.872C169.674 93.184 169.266 93.34 168.762 93.34H161.022V116.128C161.022 116.656 160.842 117.1 160.482 117.46C160.122 117.82 159.678 118 159.15 118C158.622 118 158.178 117.82 157.818 117.46C157.458 117.1 157.278 116.656 157.278 116.128V93.34H149.502C148.998 93.34 148.578 93.184 148.242 92.872C147.93 92.536 147.774 92.116 147.774 91.612C147.774 91.108 147.93 90.7 148.242 90.388C148.578 90.052 148.998 89.884 149.502 89.884H168.762ZM176.507 118C175.979 118 175.535 117.82 175.175 117.46C174.815 117.1 174.635 116.656 174.635 116.128V91.756C174.635 91.204 174.815 90.76 175.175 90.424C175.535 90.064 175.979 89.884 176.507 89.884C177.059 89.884 177.503 90.064 177.839 90.424C178.199 90.76 178.379 91.204 178.379 91.756V116.128C178.379 116.656 178.199 117.1 177.839 117.46C177.503 117.82 177.059 118 176.507 118ZM198.169 118.36C195.601 118.36 193.249 117.724 191.113 116.452C189.001 115.18 187.333 113.44 186.109 111.232C184.885 109.024 184.273 106.588 184.273 103.924C184.273 101.284 184.885 98.872 186.109 96.688C187.333 94.48 189.001 92.74 191.113 91.468C193.249 90.172 195.601 89.524 198.169 89.524C199.993 89.524 201.565 89.764 202.885 90.244C204.229 90.724 205.585 91.516 206.953 92.62C207.241 92.836 207.433 93.064 207.529 93.304C207.625 93.52 207.673 93.784 207.673 94.096C207.673 94.576 207.493 94.972 207.133 95.284C206.797 95.596 206.401 95.752 205.945 95.752C205.489 95.752 205.069 95.596 204.685 95.284C203.701 94.444 202.741 93.844 201.805 93.484C200.869 93.1 199.657 92.908 198.169 92.908C196.297 92.908 194.569 93.4 192.985 94.384C191.425 95.368 190.177 96.712 189.241 98.416C188.329 100.096 187.873 101.932 187.873 103.924C187.873 105.94 188.329 107.788 189.241 109.468C190.177 111.148 191.425 112.48 192.985 113.464C194.569 114.448 196.297 114.94 198.169 114.94C200.473 114.94 202.681 114.148 204.793 112.564C205.201 112.276 205.597 112.132 205.981 112.132C206.437 112.132 206.809 112.3 207.097 112.636C207.409 112.948 207.565 113.368 207.565 113.896C207.565 114.4 207.373 114.844 206.989 115.228C204.397 117.316 201.457 118.36 198.169 118.36ZM220.357 118.144C218.725 118.144 217.189 117.892 215.749 117.388C214.309 116.884 213.181 116.224 212.365 115.408C212.053 115.096 211.897 114.724 211.897 114.292C211.897 113.716 212.137 113.248 212.617 112.888C213.073 112.552 213.493 112.384 213.877 112.384C214.357 112.384 214.813 112.6 215.245 113.032C215.701 113.536 216.385 113.98 217.297 114.364C218.209 114.724 219.181 114.904 220.213 114.904C221.581 114.904 222.637 114.676 223.381 114.22C224.149 113.764 224.533 113.152 224.533 112.384C224.533 111.64 224.161 111.028 223.417 110.548C222.673 110.044 221.413 109.624 219.637 109.288C215.029 108.4 212.725 106.504 212.725 103.6C212.725 102.424 213.073 101.428 213.769 100.612C214.465 99.796 215.377 99.184 216.505 98.776C217.633 98.368 218.833 98.164 220.105 98.164C221.665 98.164 223.057 98.416 224.281 98.92C225.529 99.424 226.513 100.12 227.233 101.008C227.545 101.392 227.701 101.776 227.701 102.16C227.701 102.568 227.497 102.94 227.089 103.276C226.825 103.468 226.489 103.564 226.081 103.564C225.457 103.564 224.893 103.336 224.389 102.88C223.789 102.328 223.153 101.944 222.481 101.728C221.809 101.488 220.993 101.368 220.033 101.368C218.929 101.368 218.017 101.56 217.297 101.944C216.601 102.304 216.253 102.82 216.253 103.492C216.253 103.972 216.373 104.38 216.613 104.716C216.853 105.028 217.309 105.328 217.981 105.616C218.653 105.88 219.625 106.144 220.897 106.408C223.513 106.936 225.361 107.668 226.441 108.604C227.545 109.54 228.097 110.752 228.097 112.24C228.097 113.344 227.797 114.352 227.197 115.264C226.597 116.152 225.709 116.86 224.533 117.388C223.381 117.892 221.989 118.144 220.357 118.144Z" fill="#639E2E"/>
<defs>
<clipPath id="clip0">
<rect width="81" height="118" fill="white"/>
</clipPath>
</defs>
</svg>
